<?xml version="1.0" encoding="UTF-8" standalone="no"?>
<!-- Created with Inkscape (http://www.inkscape.org/) -->

<svg
   version="1.1"
   id="svg2"
   width="153.92"
   height="130.24001"
   viewBox="0 0 153.92 130.24001"
   sodipodi:docname="GrayscaleTransparent_Fox.png"
   xmlns:inkscape="http://www.inkscape.org/namespaces/inkscape"
   xmlns:sodipodi="http://sodipodi.sourceforge.net/DTD/sodipodi-0.dtd"
   xmlns="http://www.w3.org/2000/svg"
   xmlns:svg="http://www.w3.org/2000/svg">
  <defs
     id="defs6" />
  <sodipodi:namedview
     id="namedview4"
     pagecolor="#505050"
     bordercolor="#eeeeee"
     borderopacity="1"
     inkscape:showpageshadow="0"
     inkscape:pageopacity="0"
     inkscape:pagecheckerboard="0"
     inkscape:deskcolor="#505050"
     showgrid="false" />
  <g
     inkscape:groupmode="layer"
     inkscape:label="Image"
     id="g8">
    <g
       id="g3108"
       transform="translate(-4.9191291e-6,-0.22217991)">
      <path
         style="fill:#e7e7e7;stroke-width:0.32"
         d="m 32.64,129.60964 c -1.32,-0.14806 -3.048,-0.50739 -3.84,-0.79852 -1.211965,-0.44549 -3.390968,-0.55648 -13.76,-0.70084 C -0.30105903,127.89669 0.01891107,128.01525 0.49158672,122.72001 0.9704775,117.35515 5.7375664,112.3418 11.609392,111.02788 L 13.28,110.65405 v -3.88702 c 0,-5.40495 1.325929,-9.057874 4.755033,-13.100072 l 1.703025,-2.007511 -1.232117,-1.589722 C 11.092753,80.504976 8.5607213,59.671393 12.955972,44.404525 l 1.090207,-3.786826 -1.110612,-2.594778 C 9.3209821,29.577979 7.9580381,16.258461 9.7160666,6.5600005 10.562388,1.8911287 11.178408,1.5499765 12.316282,5.1200004 15.147201,14.001873 23.686212,17.663433 39.68,16.853667 48.058189,16.429479 55.033398,12.388078 62.266486,3.7671747 65.29888,0.15295176 65.866282,-0.00893842 66.49745,2.5600002 67.220826,5.5042302 67.110038,13.307723 66.290026,17.170268 65.655216,20.160446 65.6,21.356177 65.6,32.11302 v 11.692487 l 1.52,-0.447974 c 22.341808,-6.584557 54.38187,-1.222426 67.68563,11.327671 17.37347,16.389256 23.59058,38.887574 15.44024,55.874806 -6.80922,14.19202 -21.59697,18.084 -59.65028,15.69934 -12.993632,-0.81426 -20.897958,-0.59819 -27.55559,0.75324 -12.371987,2.5114 -23.03905,3.42267 -30.4,2.59705 z"
         id="path3130" />
      <path
         style="fill:#d8d8d8;stroke-width:0.32"
         d="m 33.92,129.58548 c -1.32,-0.16396 -3.35996,-0.58825 -4.533244,-0.94287 -1.952715,-0.5902 -3.157802,-0.65144 -14.24,-0.72368 C 0.20823735,127.82155 -0.11064906,127.71443 0.44572685,122.98054 1.113424,117.29948 6.2435389,112.28952 12.8,110.91561 l 0.8,-0.16764 0.01041,-4.09398 c 0.01468,-5.7704 1.381774,-9.342904 5.117864,-13.373983 0.919884,-0.992515 1.382074,-1.73407 1.21732,-1.953117 -0.146078,-0.194214 -0.809852,-1.058214 -1.475054,-1.92 C 11.462541,80.327856 8.940975,59.305832 13.133596,44.913335 14.279694,40.978995 14.290494,40.5556 13.301783,38.319949 9.7433779,30.273766 8.3003174,18.016163 9.757888,8.2175123 10.535263,2.9915377 11.153283,1.9148481 11.857301,4.5600004 14.213837,13.41403 20.233059,16.632931 34.908518,16.887105 47.922765,17.112507 54.420362,13.980103 62.88,3.4024239 63.936,2.0820333 65.041792,0.99232808 65.337312,0.98085684 66.826141,0.92306525 67.243869,11.649499 65.977165,17.410976 c -0.931738,4.237902 -1.091674,26.429027 -0.19048,26.429027 0.278675,0 1.639331,-0.28919 3.02368,-0.642646 22.920873,-5.852218 52.515025,-0.675783 65.671075,11.486801 15.6988,14.513326 22.70971,35.411622 17.25367,51.430172 -6.15808,18.07968 -19.65179,22.35603 -62.537139,19.81891 -13.960297,-0.82589 -19.339245,-0.62001 -27.917971,1.06857 -12.63184,2.48638 -21.443814,3.31851 -27.36,2.58367 z"
         id="path3128" />
      <path
         style="fill:#c7c7c7;stroke-width:0.32"
         d="m 34.56,129.43123 c -1.672,-0.23256 -3.976,-0.71987 -5.12,-1.0829 -1.948156,-0.61822 -2.850781,-0.6604 -14.24,-0.66539 C 0.42953827,127.67647 -0.11743619,127.51017 0.45595859,123.20001 1.1647471,117.87211 5.8305869,112.94168 11.679294,111.34023 L 13.6,110.81432 l 0.01473,-3.64716 c 0.02251,-5.57397 1.595232,-9.764228 5.131465,-13.671892 2.061365,-2.277882 2.004543,-1.895517 0.520566,-3.502951 C 11.877473,81.988281 9.0520154,60.087525 13.436498,44.800679 14.623237,40.663018 14.630524,41.007168 13.288811,37.82584 9.4141261,28.638609 8.2485277,15.919939 10.341478,5.6654107 10.839201,3.2267884 11.182484,3.2978451 12.23562,6.0574821 15.439864,14.453881 21.765339,17.292181 37.233904,17.274445 47.78009,17.262353 55.611235,12.979654 63.539235,2.8885764 64.372582,1.8278594 65.1704,0.96000007 65.312163,0.96000007 c 1.346435,0 1.633069,10.77582893 0.438368,16.48000093 l -0.871286,4.160001 0.215872,11.188829 c 0.254192,13.175019 -0.398925,11.622891 4.393709,10.441598 15.26294,-3.762036 35.068684,-2.683389 49.391174,2.689904 35.76048,13.416072 47.38658,64.610697 17.47405,76.945637 -7.78528,3.21039 -24.14572,4.29775 -44.925343,2.98585 C 88.046918,125.63831 81.536,125.4406 76.96,125.41246 l -8.32,-0.0512 -6.88,1.30665 c -16.046208,3.04752 -21.311046,3.58238 -27.2,2.76328 z"
         id="path3126" />
      <path
         style="fill:#b9b9b9;stroke-width:0.32"
         d="m 32.48,128.82524 c -1.232,-0.24068 -2.672,-0.61141 -3.2,-0.82386 -0.698209,-0.28093 -4.204667,-0.37246 -12.858343,-0.33565 -17.12827188,0.0729 -18.2045795,-0.53323 -14.5082476,-8.16984 2.1592527,-4.46101 4.9433186,-6.71924 9.9496676,-8.07044 L 13.92,110.87028 13.812982,107.67515 c -0.189284,-5.65129 1.467499,-10.176317 5.178375,-14.143255 1.703912,-1.821488 2.178123,-2.971888 1.225051,-2.971888 -0.413508,0 -2.692945,-3.357757 -3.872961,-5.705124 -5.008743,-9.963725 -6.158232,-26.858395 -2.69385,-39.592995 l 1.136635,-4.178115 -1.118438,-2.701885 C 11.285972,32.627961 10.030573,27.22362 9.6257162,20.981227 9.1552179,13.726725 10.43051,1.6772031 11.3891,4.3200003 15.053722,14.423231 19.540884,16.897138 34.737824,17.192848 c 13.481357,0.262328 19.162051,-2.554949 29.18273,-14.4728478 1.559929,-1.85527229 1.817379,-1.72606019 2.22607,1.1172443 0.54455,3.7884879 0.261376,9.8438345 -0.67823,14.5032445 -0.869088,4.309702 -0.885901,4.594403 -0.670813,11.360001 0.121337,3.816732 0.255046,8.533667 0.297133,10.482079 0.09834,4.552567 -0.168074,4.335943 4.033939,3.28003 27.778237,-6.980321 57.567627,0.562134 70.797997,17.925534 8.39589,11.018698 13.03335,21.470315 13.03335,29.373791 0,0.592947 0.14892,1.078083 0.33092,1.078083 1.16959,0 -0.39027,10.435653 -2.33293,15.607603 -3.74496,9.97018 -13.7609,17.29102 -24.39799,17.83293 -1.232,0.0628 -3.824,0.27847 -5.76,0.47934 -4.48602,0.46546 -21.17065,0.3612 -31.68,-0.19797 -15.280445,-0.81301 -19.407571,-0.68822 -27.36,0.82729 -14.368771,2.73829 -23.741219,3.51805 -29.28,2.43604 z"
         id="path3124" />
      <path
         style="fill:#b3b3b3;stroke-width:0.32"
         d="m 10.124372,127.37101 -7.9556287,-0.171 -0.9243717,-1.10791 C 0.11523,124.73876 0.1031953,124.27496 1.1241789,121.46012 3.0944899,116.028 6.5273862,112.85936 11.905926,111.50831 l 2.0561,-0.51647 -0.02101,-3.89592 c -0.03234,-5.99647 1.403973,-9.580501 5.721536,-14.27693 0.977598,-1.063383 1.77745,-2.068445 1.77745,-2.233469 0,-0.926081 6.746938,-4.298676 10.904298,-5.45074 1.285001,-0.35609 2.433696,-0.757088 2.552656,-0.891107 3.361129,-3.786605 18.094102,-24.550585 21.254614,-29.955276 3.436355,-5.87641 7.825274,-16.258811 7.843718,-18.555061 0.0026,-0.325571 0.182736,-0.527533 0.404714,-0.453798 0.287306,0.09544 0.425299,1.340829 0.489802,4.42047 0.109667,5.2361 -0.191197,4.96329 4.241552,3.846049 34.576824,-8.714839 72.481704,5.780515 72.807344,27.842549 l 0.0689,4.668599 1.7584,2.916794 c 0.96713,1.604237 2.16044,4.039366 2.65183,5.411402 1.07596,3.004294 1.00725,2.906723 1.53692,2.182355 1.00869,-1.379462 5.64524,5.219664 5.64524,8.034775 0,10.581058 -5.91257,21.755018 -13.94248,26.349378 -5.6108,3.21026 -15.73714,5.58172 -12.91025,3.02342 3.72632,-3.37228 6.64515,-10.88164 6.93057,-17.8305 0.23245,-5.65948 2.33022,-4.43759 2.44632,1.42491 0.0588,2.97059 1.78327,0.0927 3.12594,-5.21685 1.42162,-5.621766 -0.76469,-18.018176 -2.62915,-14.907334 -1.68333,2.808617 -11.51081,5.034451 -22.22806,5.034451 h -5.89433 l 0.0707,2.64 c 0.16615,6.202623 -0.92982,11.137353 -3.00309,13.521663 l -1.08619,1.24914 2.13199,-1.1854 c 3.83766,-2.13376 4.46333,-1.40884 3.18816,3.69395 -2.14798,8.59551 -8.51236,13.91329 -15.970878,13.34453 -2.238099,-0.17067 -8.070704,-0.4034 -12.96134,-0.51718 -10.267735,-0.23888 -9.992244,-0.1323 -6.54962,-2.53399 5.466205,-3.8134 9.64386,-8.70574 11.089552,-12.98668 1.003661,-2.97199 1.007405,-2.97023 -2.579494,-1.21615 -4.756864,2.32621 -6.224698,2.06177 -3.167853,-0.57072 4.601549,-3.96275 5.335309,-17.808155 1.012195,-19.099163 -1.759606,-0.525472 -22.1555,-3.386458 -27.592304,-3.870445 l -2.439593,-0.217175 0.897449,1.873808 c 3.18673,6.653643 2.104938,15.260285 -2.638768,20.993815 -0.691673,0.836 -1.20591,1.52 -1.142748,1.52 0.06316,0 1.475737,-0.42946 3.139049,-0.95435 4.531575,-1.43003 5.073373,-1.26134 3.665402,1.14117 -4.849053,8.27429 -15.03496,15.1262 -24.961197,16.79103 -1.232,0.20663 -2.688997,0.64714 -3.237771,0.97892 -1.092512,0.66051 -0.06384,0.64187 -16.237857,0.29423 z M 35.038397,61.989429 C 26.232907,57.241918 14.72,45.580231 14.72,41.408464 14.72,41.022931 14.130592,39.23839 13.410205,37.442816 10.512705,30.220758 9.3786867,23.168083 9.7118208,14.441855 9.9724093,7.6159001 10.852747,2.6029817 11.413989,4.7491748 13.870164,14.141601 22.866951,18.204914 39.68,17.515247 48.290883,17.162031 56.975747,11.922093 63.815382,2.9533699 64.504851,2.0492802 65.178755,1.377428 65.31295,1.4603651 c 1.264548,0.7815336 1.379293,10.3728339 0.193085,16.1396359 -0.452531,2.200001 -0.922841,4.648001 -1.045133,5.440001 -0.75646,4.899019 -6.720169,13.830727 -13.176531,19.734184 C 40.037018,53.058346 37.404333,56.66946 37.874502,61.1678 c 0.238314,2.280061 -0.0019,2.349667 -2.836105,0.821629 z"
         id="path3122" />
      <path
         style="fill:#ababab;stroke-width:0.32"
         d="m 10.56,127.37101 c -4.312,-0.094 -8.0853637,-0.29186 -8.3852528,-0.43958 -1.20036317,-0.59127 -2.31237403,-3.41082 -1.5347472,-3.89142 0.176,-0.10877 0.32,-0.45793 0.32,-0.77589 0,-4.26955 5.9658413,-9.66062 12.210973,-11.03452 l 0.850972,-0.18721 -0.03258,-3.76119 c -0.0537,-6.20016 2.268822,-11.663343 6.309601,-14.84182 0.430762,-0.338839 0.871765,-0.895098 0.980006,-1.236138 0.4321,-1.361427 6.750379,-4.594557 11.594723,-5.933139 l 1.993696,-0.550893 6.830346,-9.159604 C 55.517968,57.026468 60.069955,49.307677 63.372189,38.806339 64.677475,34.65543 64.96,34.872969 64.96,40.028931 c 0,4.865332 -0.107814,4.737028 3.226486,3.839757 35.013824,-9.422327 74.061394,5.604609 73.515154,28.291318 l -0.0924,3.84 1.49831,2.4 c 1.73136,2.773296 2.5776,4.587056 3.80718,8.160001 0.65951,1.916435 0.88778,2.318662 0.90805,1.6 0.068,-2.411386 0.58074,-2.171332 3.37822,1.581632 2.56804,3.445133 2.66172,3.88977 1.84325,8.748161 -2.6036,15.45471 -10.27102,23.78292 -24.27079,26.36248 -2.65491,0.48919 -2.74988,0.31752 -0.94993,-1.71706 3.71219,-4.19605 6.20293,-11.86771 6.26454,-19.29521 0.0132,-1.59841 0.0139,-1.59929 0.6041,-0.89212 0.78539,0.94098 1.43362,4.48083 1.13942,6.22217 -0.32815,1.94235 0.40226,1.26354 1.87533,-1.74283 2.83572,-5.78743 3.09469,-13.911911 0.60647,-19.027223 -0.94773,-1.948372 -1.08861,-1.993959 -2.32897,-0.753603 -2.81092,2.810918 -9.08887,4.21528 -19.78421,4.42567 l -8.11984,0.159728 0.20929,1.780701 c 0.63541,5.40634 -0.82462,12.111727 -3.21646,14.772027 -1.75994,1.95747 -1.66073,1.97641 1.47665,0.28185 3.22608,-1.74247 3.69425,-1.60365 3.42062,1.01431 -0.57136,5.46653 -4.24077,11.02509 -9.71074,14.71023 L 98.72,125.8282 93.76,125.61316 c -2.728,-0.11828 -7.696,-0.34044 -11.04,-0.49369 -3.344,-0.15326 -6.887888,-0.19743 -7.875302,-0.0981 -2.927652,0.29436 -3.230944,-0.19575 -1.022656,-1.65256 6.475187,-4.2717 10.962588,-9.74807 12.275635,-14.98102 0.519686,-2.07112 0.520313,-2.07108 -3.226858,-0.23862 -4.673673,2.28553 -5.101693,2.19813 -2.533504,-0.51736 4.744682,-5.0168 4.678531,-18.307142 -0.09529,-19.144858 -11.254682,-1.974989 -30.206317,-4.373997 -29.958484,-3.79232 0.06405,0.150336 0.513482,1.067111 0.998736,2.037277 3.177408,6.352605 2.099328,14.859321 -2.624403,20.708141 -1.856448,2.29861 -1.833725,2.30927 2.20633,1.03435 4.469942,-1.41058 4.711117,-1.24093 2.660419,1.87142 -5.329597,8.08875 -14.843603,14.00731 -25.285457,15.7298 -1.276458,0.21057 -2.244424,0.50648 -2.151037,0.65758 0.380457,0.6156 -1.257137,0.94327 -4.387093,0.87785 -1.81557,-0.0379 -6.829037,-0.14595 -11.141037,-0.24 z M 34.88,61.556754 C 25.115229,56.132206 17.043793,47.524048 14.217252,39.520003 11.066094,30.596728 10.540771,28.534816 9.8962749,22.560002 9.1995677,16.101162 10.393737,2.0943696 11.393873,4.9941994 14.647885,14.429 21.083782,17.577675 37.148813,17.594456 47.663725,17.605438 54.614563,13.977829 62.906906,4.1514253 65.521206,1.053485 65.450989,1.0593878 65.929667,3.8973158 68.34024,18.188807 62.087757,33.135007 48.883101,44.64616 40.492582,51.96059 37.241763,56.560993 37.494938,60.762136 37.625843,62.934315 37.453843,62.986581 34.88,61.556754 Z"
         id="path3120" />
      <path
         style="fill:#a3a3a3;stroke-width:0.32"
         d="m 3.04,127.13094 c -0.8182409,-0.19794 -2.08,-1.35458 -2.08,-1.90671 0,-0.23332 -0.144,-0.42422 -0.32,-0.42422 -0.36868204,0 -0.44092032,-1.49293 -0.08,-1.65333 0.132,-0.0587 0.5096474,-0.89867 0.8392164,-1.86667 1.7471246,-5.1316 6.1589433,-9.06264 10.9828916,-9.78604 1.802326,-0.27028 1.755329,-0.14057 1.825342,-5.03775 0.140595,-9.834133 6.592898,-17.361733 17.702987,-20.653247 l 2.950437,-0.874109 6.347763,-8.464429 C 55.368832,57.58251 60.415542,49.08769 63.520426,38.908374 64.624445,35.288857 64.96,35.659596 64.96,40.49889 c 0,4.652969 -0.397462,4.360198 4.320746,3.182678 35.058814,-8.749601 72.276914,5.847469 72.203434,28.318438 l -0.0131,4 1.24725,2.08 c 1.90087,3.170055 3.42607,6.599658 4.2326,9.517575 0.83412,3.017684 1.20906,3.340948 1.20906,1.042426 0,-2.231194 0.45324,-2.057978 2.73846,1.04655 2.45357,3.333249 2.81676,4.083815 2.61502,5.404209 -2.11607,13.850014 -5.44327,20.326224 -12.894,25.097474 -5.23906,3.35495 -15.54144,6.17872 -13.01391,3.56698 1.58866,-1.6416 4.04394,-5.99541 4.98249,-8.83517 0.81183,-2.45634 1.12277,-4.13737 1.75353,-9.48004 0.37286,-3.15827 1.1179,-1.55663 1.15363,2.48 0.0269,3.04094 0.1443,3.24925 1.08195,1.92 4.09129,-5.79997 4.92114,-16.090636 1.76517,-21.8892 -1.00462,-1.845815 -1.09239,-1.862083 -2.49251,-0.461968 -3.01047,3.010474 -11.84261,4.834595 -22.37349,4.620845 l -5.40366,-0.10968 -0.0986,4.64 c -0.16238,7.638553 -0.65454,9.357523 -3.58555,12.523373 -2.12056,2.29046 -1.79707,2.33587 2.00311,0.28117 3.207,-1.73397 3.3707,-1.73549 3.36367,-0.0312 -0.0214,5.19101 -3.99862,11.44777 -9.67,15.2124 l -1.834736,1.21788 -6.805267,-0.40258 c -3.742896,-0.22142 -9.532566,-0.49224 -12.865936,-0.60181 l -6.060665,-0.19923 2.823814,-2.05025 c 6.136358,-4.45533 10.12376,-9.7867 11.211043,-14.98975 0.292103,-1.39783 -0.02909,-1.36153 -3.813053,0.43096 -3.568566,1.69044 -3.970313,1.64257 -2.219212,-0.26442 4.634889,-5.0475 4.871852,-18.214838 0.347116,-19.288233 -6.134691,-1.455322 -31.228723,-4.547965 -30.910252,-3.809446 0.06905,0.160124 0.529734,1.06014 1.023747,2.000035 3.331753,6.338928 2.011597,15.635964 -3.022256,21.283824 -1.919536,2.15367 -1.746941,2.20991 2.600387,0.84728 4.452646,-1.39564 4.613805,-1.30049 2.674589,1.57908 -5.352179,7.94753 -14.590426,13.73372 -24.390999,15.27681 -3.897848,0.61372 -3.785169,0.57155 -3.250008,1.21638 C 25.991136,127.3513 4.948504,127.59264 3.04,127.13094 Z M 33.544534,60.519397 C 25.182168,55.473143 16.924371,46.728333 14.743435,40.609478 10.424448,28.492085 9.8587149,25.776967 9.8490736,17.120001 9.8433904,12.01739 10.460307,5.433027 10.994086,4.8992477 c 0.083,-0.083004 0.719478,1.0623656 1.414389,2.5452649 C 16.022952,15.157606 21.871171,17.596934 36.753811,17.5991 48.029088,17.600732 55.839222,13.45636 63.731734,3.2834979 65.34511,1.2039774 65.441123,1.266449 65.930525,4.7141536 68.023597,19.459275 61.77511,33.133206 47.04,46.053402 c -6.586298,5.775066 -9.765706,10.446772 -9.753853,14.33195 0.0075,2.453226 0.09633,2.450042 -3.741613,0.134045 z"
         id="path3118" />
      <path
         style="fill:#9b9b9b;stroke-width:0.32"
         d="M 10.200581,127.12039 C 1.9545328,127.02028 0.96,126.77016 0.96,124.7964 c 0,-0.37079 -0.144,-0.58516 -0.32,-0.47639 -0.176,0.10877 -0.32,-0.0352 -0.32,-0.32 0,-0.28477 0.144,-0.42877 0.32,-0.32 0.176,0.10877 0.32,-0.0934 0.32,-0.44927 0,-4.54303 5.2757309,-10.08527 10.979028,-11.53364 l 2.291637,-0.58197 0.02173,-4.11756 C 14.3078,96.502881 20.832522,89.157959 33.28,85.578083 l 1.76,-0.506176 6.801254,-9.175949 C 55.765568,57.109892 60.41224,49.255476 63.543798,39.211481 c 1.087005,-3.486406 1.404781,-3.114966 1.411303,1.649636 0.0059,4.326032 -0.276928,4.127731 4.255037,2.983171 19.912956,-5.029082 45.790052,-1.608422 60.549862,8.004007 8.04194,5.23737 11.45152,11.204609 11.51435,20.151711 l 0.0303,4.32 1.22054,1.876045 c 1.73377,2.66489 3.25328,6.032403 4.06282,9.003956 1.33616,4.904611 1.81537,5.335255 1.86946,1.68 0.0124,-0.836 0.13049,-1.516413 0.26249,-1.512029 0.33335,0.01107 3.19595,3.85185 3.89979,5.232384 0.31817,0.62408 0.66888,1.044308 0.77935,0.933834 0.11048,-0.11047 0.20086,0.335642 0.20086,0.991363 0,0.713328 -0.12854,1.112778 -0.32,0.994448 -0.19501,-0.120528 -0.32,0.358228 -0.32,1.225767 0,13.663256 -10.89239,26.081466 -24.51456,27.948586 l -1.5463,0.21195 1.11043,-1.29732 c 3.57039,-4.17133 6.39043,-11.68892 6.39043,-17.03549 0,-1.06342 0.13134,-1.93349 0.29187,-1.93349 0.42214,0 0.74396,2.28289 0.6173,4.3789 -0.26034,4.3082 3.28609,-0.74421 4.68367,-6.67259 1.71773,-7.286338 -1.25197,-18.57264 -4.00734,-15.229894 -2.53119,3.070768 -10.19887,4.778067 -21.3455,4.752829 -5.15938,-0.01168 -6.80545,0.07944 -6.8226,0.377677 -0.0124,0.216192 -0.004,1.486131 0.019,2.822093 0.12903,7.536325 -1.00256,11.579125 -4.01054,14.328245 -2.8162,2.57386 -2.04805,2.6942 2.31542,0.36274 1.64697,-0.88 3.08408,-1.6 3.19358,-1.6 0.41952,0 -0.23358,4.82385 -0.8726,6.44505 -1.34322,3.40777 -4.67787,7.21957 -8.803174,10.0628 l -1.620938,1.11717 -5.099062,-0.36161 c -2.804486,-0.19889 -8.47423,-0.45652 -12.59943,-0.57251 l -7.500352,-0.2109 2.700361,-1.96529 c 5.483629,-3.99091 9.223853,-8.61409 10.663783,-13.18117 1.177628,-3.73515 0.883993,-3.9281 -3.003418,-1.97354 -3.21047,1.61419 -3.569904,1.607 -2.08049,-0.0416 4.028906,-4.45951 4.413207,-14.974118 0.675632,-18.485389 C 80.633805,87.902 51.137011,83.567853 49.933856,84.311443 c -0.15616,0.09651 0.14929,1.015466 0.678778,2.042122 3.423337,6.637722 2.206371,15.900265 -2.818631,21.453065 -2.468019,2.72725 -2.294797,2.82007 2.461792,1.31903 4.591514,-1.44894 4.683283,-1.35999 2.110768,2.04586 -6.210381,8.22218 -15.468259,13.60059 -24.923343,14.47934 -2.122055,0.19723 -2.833927,0.49463 -2.16844,0.90592 0.967923,0.59821 -0.01134,0.79688 -3.59478,0.7293 -2.156,-0.0407 -7.321738,-0.11522 -11.479419,-0.16569 z M 34.073309,60.593195 C 16.575338,50.404007 7.6815232,31.542333 10.231076,10.029465 10.877227,4.5773088 10.843299,4.6112919 12.434482,7.8224326 15.820448,14.655598 20.507669,16.945249 32.569562,17.658181 46.45592,18.478949 53.239302,15.597458 62.468598,4.9574609 65.555402,1.3988433 65.422522,1.3789168 65.924371,5.4756836 67.550506,18.750338 61.262246,33.403532 49.651677,43.395069 40.775661,51.03337 37.059414,55.992014 37.027261,60.240005 c -0.0167,2.207785 0.188768,2.183216 -2.953952,0.35319 z"
         id="path3116" />
      <path
         style="fill:#939393;stroke-width:0.32"
         d="m 10.54476,127.0514 c -11.17165584,-0.2541 -11.7992276,-1.25041 -6.5022426,-10.32268 1.2750516,-2.18382 4.7137527,-4.30761 8.2120886,-5.07191 2.320551,-0.50698 2.168565,-0.15908 2.261504,-5.17664 0.183755,-9.920422 6.354294,-16.946736 17.80389,-20.273066 1.496,-0.434614 2.760234,-0.905715 2.809411,-1.046883 0.04918,-0.141171 3.145251,-4.347972 6.880173,-9.348446 12.849587,-17.203591 17.893658,-25.578443 21.167181,-35.144633 1.462189,-4.272931 1.94712,-4.098339 1.702246,0.612861 -0.208339,4.008231 -0.269469,3.960192 3.677418,2.889924 21.530979,-5.8385 50.604021,-1.21554 64.254171,10.217181 6.056,5.072215 8.08315,9.372318 8.1522,17.292898 l 0.0405,4.64 1.22905,1.903859 c 1.9575,3.032247 3.66461,6.979182 4.59019,10.612801 1.00766,3.955812 1.46075,4.326144 1.59261,1.301712 0.11881,-2.725146 0.31854,-2.680922 2.7245,0.603239 l 1.85962,2.53839 -0.17817,3.04 c -0.8756,14.940553 -10.43797,26.209803 -23.81231,28.062803 l -1.39125,0.19276 1.31099,-1.72778 c 2.804,-3.69545 4.7655,-8.62476 5.52654,-13.88837 0.44871,-3.10345 0.94652,-2.83917 0.67002,0.3557 -0.42734,4.93768 3.79286,-0.89151 5.16796,-7.13828 1.59119,-7.228484 -1.8154,-19.93859 -4.13945,-15.444385 -1.5787,3.05288 -10.54069,5.10497 -22.30201,5.10665 l -6.30846,9.6e-4 0.0292,3.28 c 0.0739,8.292675 -0.86691,11.501385 -4.21839,14.387615 -3.06567,2.6401 -1.6182,2.93074 2.78207,0.55862 3.48805,-1.88036 3.56351,-1.83674 2.84242,1.64316 -0.97103,4.68604 -4.3124,9.25033 -9.208967,12.57941 l -1.83055,1.24456 -6.16945,-0.37643 c -3.393193,-0.20705 -8.851981,-0.46625 -12.130637,-0.57601 l -5.96119,-0.19957 2.60119,-1.9211 c 4.949386,-3.65536 8.458589,-7.97367 9.977636,-12.27816 1.565715,-4.43674 1.037881,-5.04281 -2.736445,-3.14209 -2.763453,1.39165 -2.805923,1.38956 -1.629671,-0.08 3.34416,-4.17808 3.580983,-14.202229 0.418039,-17.694815 C 81.293347,88.144452 80.881098,88.057789 67.199997,86.089178 49.40759,83.528979 48.86919,83.546077 50.414509,86.622253 c 3.444013,6.855805 2.25872,15.539837 -2.873219,21.050597 -2.84568,3.05574 -2.401325,3.33614 2.750422,1.73562 3.90071,-1.21186 3.947738,-1.17343 1.916723,1.56626 -5.938038,8.00997 -14.38352,12.94592 -24.768438,14.47588 -2.642081,0.38924 -3.224066,0.6496 -2.48,1.10946 1.361107,0.84121 1.202486,0.84661 -14.41524,0.49139 z M 0.34526317,123.97334 c 0.0153549,-0.37278 0.0911809,-0.4486 0.19333331,-0.19333 0.0924386,0.231 0.0810702,0.507 -0.025263,0.61333 -0.10633334,0.10634 -0.18196493,-0.0827 -0.16807031,-0.42 z M 153.35424,94.400007 c 0,-0.616 0.0659,-0.868 0.14635,-0.56 0.0805,0.308 0.0805,0.812 0,1.12 -0.0805,0.308 -0.14635,0.056 -0.14635,-0.56 z M 34.08,60.274875 C 16.403901,49.940861 7.669655,30.943269 10.524488,9.0400007 10.991526,5.4567249 11.179192,5.1533761 11.811275,6.9600005 13.85834,12.810938 19.518671,16.537641 27.967396,17.597022 43.796688,19.581847 53.086038,16.204075 62.746563,4.9507047 65.563603,1.6691873 65.566576,1.6716883 65.833174,7.5485628 66.463907,21.452341 60.729763,33.327276 47.975149,44.53104 40.10568,51.443649 37.274307,55.316427 36.837094,59.765771 L 36.64,61.771534 Z"
         id="path3114" />
      <path
         style="fill:#878787;stroke-width:0.32"
         d="m 18.021948,127.10979 c -0.207928,-0.13223 -1.085716,-1.31803 -1.950641,-2.6351 -2.882733,-4.38971 -7.2101902,-7.67468 -10.1102596,-7.67468 -1.9101034,0 -1.9357338,-0.54457 -0.096561,-2.05164 C 9.5285117,111.74598 15.04,110.59226 15.04,112.82766 c 0,2.2746 4.025467,8.64631 7.363753,11.65573 1.404475,1.26612 2.473691,2.43131 2.376034,2.58933 -0.213778,0.34589 -6.220405,0.37885 -6.757839,0.0371 z M 100.48,91.32081 C 93.166586,90.482266 82.702358,88.875492 81.907683,88.469044 81.167843,88.09064 71.718778,86.509603 62.870451,85.28369 57.136563,84.489274 50.156038,83.853491 49.784845,84.091856 49.595181,84.213651 47.064,84.409059 44.16,84.526093 c -2.904,0.117033 -5.98673,0.321229 -6.850506,0.45377 -2.239532,0.343638 -2.217193,0.302793 5.441696,-9.948843 C 54.912464,58.752817 59.976003,50.35561 63.181603,41.149888 64.566784,37.171977 64.64,37.125337 64.64,40.220851 c 0,18.688741 4.804256,27.435685 18.058557,32.878601 4.465382,1.833722 10.491325,2.644394 22.741443,3.059418 19.69196,0.667149 27.57299,3.16241 30.22729,9.570445 1.77997,4.297236 -18.44507,7.511131 -35.18729,5.591495 z"
         id="path3112" />
      <path
         style="fill:#717171;stroke-width:0.32"
         d="m 17.270346,125.36001 c -3.123334,-5.12147 -8.0462433,-9.2 -11.1046734,-9.2 -3.0474351,0 2.4039895,-3.52688 6.6798894,-4.32166 1.132651,-0.21053 1.176721,-0.18194 1.560739,1.01251 1.58601,4.93311 3.692888,8.29309 7.292782,11.63032 l 2.760235,2.55883 H 21.377107 18.294896 Z M 102.72,90.948087 C 97.462634,90.446788 83.087846,88.424772 81.76,87.999767 80.542058,87.60994 63.367238,84.998583 57.44,84.302013 52.364518,83.705546 43.240371,83.653018 39.09945,84.196429 c -1.463306,0.192025 -2.723623,0.28607 -2.800708,0.208985 -0.07708,-0.07708 2.713885,-3.943837 6.202151,-8.592781 C 55.084669,59.041768 64,43.966125 64,39.458089 c 0,-0.229948 0.160106,-0.418086 0.355789,-0.418086 0.251529,0 0.302765,1.147686 0.174838,3.916493 -1.086857,23.523954 10.250979,32.804579 41.357103,33.852985 19.41196,0.654263 24.81191,2.256183 29.01496,8.607418 l 0.91287,1.37944 -0.70484,0.570749 c -4.33776,3.512503 -17.66116,4.985489 -32.39072,3.580999 z"
         id="path3110" />
    </g>
  </g>
</svg>
