<svg width="54" height="54" viewBox="0 0 54 54" fill="none" xmlns="http://www.w3.org/2000/svg">
<path d="M20.25 39.9375C20.0025 39.9375 19.7325 39.87 19.5075 39.7575C17.775 38.88 16.29 37.575 15.21 35.955C14.31 34.605 14.31 32.8725 15.21 31.5225C16.29 29.9025 17.775 28.5975 19.5075 27.7425C20.34 27.315 21.3525 27.675 21.78 28.5075C22.2075 29.34 21.87 30.3525 21.015 30.78C19.8 31.3875 18.765 32.31 18.0225 33.435C17.8875 33.6375 17.8875 33.9075 18.0225 34.1325C18.765 35.2575 19.8 36.18 21.015 36.7875C21.8475 37.215 22.185 38.2275 21.78 39.06C21.465 39.6 20.8575 39.9375 20.25 39.9375Z" fill="#5c5c5c"/>
<path d="M34.2225 39.9375C33.5925 39.9375 33.0075 39.6 32.715 39.015C32.2875 38.1825 32.625 37.17 33.48 36.7425C34.695 36.135 35.73 35.2125 36.4725 34.0875C36.6075 33.885 36.6075 33.615 36.4725 33.39C35.73 32.265 34.695 31.3425 33.48 30.735C32.6475 30.3075 32.31 29.295 32.715 28.4625C33.1425 27.63 34.155 27.2925 34.9875 27.6975C36.72 28.575 38.205 29.88 39.285 31.5C40.185 32.85 40.185 34.5825 39.285 35.9325C38.205 37.5525 36.72 38.8575 34.9875 39.7125C34.7175 39.87 34.47 39.9375 34.2225 39.9375Z" fill="#5c5c5c"/>
<path d="M33.75 51.1875H20.25C8.0325 51.1875 2.8125 45.9675 2.8125 33.75V20.25C2.8125 8.0325 8.0325 2.8125 20.25 2.8125H33.75C45.9675 2.8125 51.1875 8.0325 51.1875 20.25V33.75C51.1875 45.9675 45.9675 51.1875 33.75 51.1875ZM20.25 6.1875C9.8775 6.1875 6.1875 9.8775 6.1875 20.25V33.75C6.1875 44.1225 9.8775 47.8125 20.25 47.8125H33.75C44.1225 47.8125 47.8125 44.1225 47.8125 33.75V20.25C47.8125 9.8775 44.1225 6.1875 33.75 6.1875H20.25Z" fill="#5c5c5c"/>
<path d="M5.01752 19.71C4.09502 19.71 3.33002 18.945 3.33002 18.0225C3.33002 17.1 4.07252 16.335 5.01752 16.335L48.2625 16.3125C49.185 16.3125 49.95 17.0775 49.95 18C49.95 18.9225 49.2075 19.6875 48.2625 19.6875L5.01752 19.71Z" fill="#5c5c5c"/>
</svg>
