<svg width="54" height="54" viewBox="0 0 54 54" fill="none" xmlns="http://www.w3.org/2000/svg">
<path d="M14.67 36.585C14.2425 36.585 13.815 36.4275 13.4775 36.09C12.825 35.4375 12.825 34.3575 13.4775 33.705L20.34 26.8425C20.9925 26.19 22.0725 26.19 22.725 26.8425C23.3775 27.495 23.3775 28.575 22.725 29.2275L15.8625 36.09C15.525 36.405 15.0975 36.585 14.67 36.585Z" fill="#76C893"/>
<path d="M21.6 36.6525C21.1725 36.6525 20.745 36.495 20.4075 36.1575L13.545 29.295C12.8925 28.6425 12.8925 27.5625 13.545 26.91C14.1975 26.2575 15.2775 26.2575 15.93 26.91L22.7925 33.7725C23.445 34.425 23.445 35.505 22.7925 36.1575C22.455 36.495 22.0275 36.6525 21.6 36.6525Z" fill="#76C893"/>
<path d="M30.465 33.75C29.2275 33.75 28.1925 32.7375 28.1925 31.5C28.1925 30.2625 29.1825 29.25 30.42 29.25H30.465C31.7025 29.25 32.715 30.2625 32.715 31.5C32.715 32.7375 31.725 33.75 30.465 33.75Z" fill="#76C893"/>
<path d="M39.33 33.75C38.0925 33.75 37.0575 32.7375 37.0575 31.5C37.0575 30.2625 38.0475 29.25 39.285 29.25H39.33C40.5675 29.25 41.58 30.2625 41.58 31.5C41.58 32.7375 40.5675 33.75 39.33 33.75Z" fill="#76C893"/>
<path d="M34.875 38.1825C33.6375 38.1825 32.625 37.1925 32.625 35.955V35.91C32.625 34.6725 33.6375 33.66 34.875 33.66C36.1125 33.66 37.125 34.6725 37.125 35.91C37.125 37.1475 36.135 38.1825 34.875 38.1825Z" fill="#76C893"/>
<path d="M34.875 29.3175C33.6375 29.3175 32.625 28.3275 32.625 27.09V27.045C32.625 25.8075 33.6375 24.795 34.875 24.795C36.1125 24.795 37.125 25.8075 37.125 27.045C37.125 28.2825 36.135 29.3175 34.875 29.3175Z" fill="#76C893"/>
<path d="M33.75 51.1875H20.25C8.0325 51.1875 2.8125 45.9675 2.8125 33.75V29.25C2.8125 17.0325 8.0325 11.8125 20.25 11.8125H33.75C45.9675 11.8125 51.1875 17.0325 51.1875 29.25V33.75C51.1875 45.9675 45.9675 51.1875 33.75 51.1875ZM20.25 15.1875C9.8775 15.1875 6.1875 18.8775 6.1875 29.25V33.75C6.1875 44.1225 9.8775 47.8125 20.25 47.8125H33.75C44.1225 47.8125 47.8125 44.1225 47.8125 33.75V29.25C47.8125 18.8775 44.1225 15.1875 33.75 15.1875H20.25Z" fill="#76C893"/>
<path d="M29.2275 15.1875H26.9775C24.8175 15.1875 23.04 13.41 23.04 11.25C23.04 9.09 24.795 7.3125 26.955 7.3125C27.315 7.3125 27.5625 7.065 27.585 6.75L27.6075 4.4775C27.63 3.555 28.3725 2.8125 29.295 2.8125H29.3175C30.24 2.835 31.005 3.6 30.9825 4.5225L30.96 6.795C30.9375 8.9325 29.16 10.6875 27.0225 10.6875C26.6625 10.6875 26.4375 10.935 26.4375 11.25C26.4375 11.565 26.685 11.8125 27 11.8125H29.25C30.1725 11.8125 30.9375 12.5775 30.9375 13.5C30.9375 14.4225 30.15 15.1875 29.2275 15.1875Z" fill="#76C893"/>
</svg>
