<svg width="54" height="54" viewBox="0 0 54 54" fill="none" xmlns="http://www.w3.org/2000/svg">
<path d="M22.5 39.825H13.9725C5.4225 39.825 2.8125 37.215 2.8125 28.665V15.165C2.8125 6.61501 5.4225 4.005 13.9725 4.005H37.665C46.215 4.005 48.825 6.61501 48.825 15.165C48.825 16.0875 48.06 16.8525 47.1375 16.8525C46.215 16.8525 45.45 16.0875 45.45 15.165C45.45 8.55 44.28 7.38 37.665 7.38H13.9725C7.3575 7.38 6.1875 8.55 6.1875 15.165V28.665C6.1875 35.28 7.3575 36.45 13.9725 36.45H22.5C23.4225 36.45 24.1875 37.215 24.1875 38.1375C24.1875 39.06 23.4225 39.825 22.5 39.825Z" fill="#76C893"/>
<path d="M22.5 49.995C21.5775 49.995 20.8125 49.23 20.8125 48.3075V38.115C20.8125 37.1925 21.5775 36.4275 22.5 36.4275C23.4225 36.4275 24.1875 37.1925 24.1875 38.115V48.3075C24.1875 49.2525 23.4225 49.995 22.5 49.995Z" fill="#76C893"/>
<path d="M22.5 30.825H4.5C3.5775 30.825 2.8125 30.06 2.8125 29.1375C2.8125 28.215 3.5775 27.45 4.5 27.45H22.5C23.4225 27.45 24.1875 28.215 24.1875 29.1375C24.1875 30.06 23.4225 30.825 22.5 30.825Z" fill="#76C893"/>
<path d="M22.5 49.995H15.165C14.2425 49.995 13.4775 49.23 13.4775 48.3075C13.4775 47.385 14.2425 46.62 15.165 46.62H22.5C23.4225 46.62 24.1875 47.385 24.1875 48.3075C24.1875 49.23 23.4225 49.995 22.5 49.995Z" fill="#76C893"/>
<path d="M42.84 49.995H34.8525C28.62 49.995 26.505 47.88 26.505 41.6475V28.8C26.505 22.5675 28.62 20.4525 34.8525 20.4525H42.84C49.0725 20.4525 51.1875 22.5675 51.1875 28.8V41.6475C51.1875 47.9025 49.0725 49.995 42.84 49.995ZM34.8525 23.8275C30.4425 23.8275 29.88 24.39 29.88 28.8V41.6475C29.88 46.0575 30.4425 46.62 34.8525 46.62H42.84C47.25 46.62 47.8125 46.0575 47.8125 41.6475V28.8C47.8125 24.39 47.25 23.8275 42.84 23.8275H34.8525Z" fill="#76C893"/>
<path d="M38.925 42.6825C38.34 42.6825 37.755 42.4575 37.3275 42.03C37.125 41.8275 36.9675 41.58 36.855 41.31C36.7425 41.0175 36.675 40.725 36.675 40.4325C36.675 39.8475 36.9225 39.2625 37.3275 38.8575C37.845 38.34 38.6325 38.0925 39.375 38.2275C39.51 38.2725 39.645 38.3175 39.78 38.3625C39.915 38.43 40.05 38.4975 40.1625 38.565C40.2975 38.655 40.41 38.745 40.5225 38.8575C40.9275 39.2625 41.175 39.8475 41.175 40.4325C41.175 40.725 41.1075 41.0175 40.995 41.31C40.8825 41.58 40.725 41.8275 40.5225 42.03C40.41 42.1425 40.2975 42.2325 40.1625 42.3C40.05 42.39 39.915 42.4575 39.78 42.525C39.645 42.57 39.51 42.615 39.375 42.6375C39.2175 42.6825 39.0825 42.6825 38.925 42.6825Z" fill="#76C893"/>
</svg>
